<svg width="380" height="406" viewBox="0 0 380 406" fill="none" xmlns="http://www.w3.org/2000/svg">
<path d="M269.375 359.142C261.231 365.415 250.556 367.667 238.168 366.31C225.777 364.953 211.705 359.986 196.83 351.864C167.08 335.621 134.204 306.803 105.275 269.249C76.3454 231.696 56.8699 192.554 48.7547 159.645C44.6969 143.19 43.4854 128.317 45.3346 115.989C47.1833 103.666 52.0847 93.9176 60.2281 87.6444C68.3715 81.3711 79.0474 79.1192 91.4351 80.4761C103.826 81.8334 117.898 86.7999 132.773 94.922C162.523 111.165 195.399 139.983 224.328 177.537C253.258 215.09 272.733 254.232 280.848 287.141C284.906 303.596 286.118 318.469 284.268 330.797C282.42 343.12 277.518 352.868 269.375 359.142Z" stroke="black"/>
<path d="M351.885 261.127C348.127 270.695 340.129 278.117 328.808 283.324C317.483 288.533 302.86 291.511 285.926 292.196C252.059 293.565 209.043 285.759 164.919 268.431C120.795 251.103 83.9625 227.551 60.0778 203.501C48.1349 191.476 39.4464 179.344 34.6924 167.82C29.9398 156.301 29.1299 145.42 32.8874 135.852C36.645 126.284 44.6426 118.862 55.9643 113.654C67.2891 108.446 81.9117 105.468 98.846 104.783C132.713 103.414 175.729 111.22 219.853 128.548C263.977 145.876 300.81 169.428 324.694 193.477C336.637 205.503 345.326 217.635 350.08 229.158C354.832 240.678 355.642 251.559 351.885 261.127Z" fill="black" stroke="black"/>
<path d="M351.885 227.428C348.127 236.996 340.129 244.418 328.808 249.626C317.483 254.834 302.86 257.812 285.926 258.497C252.059 259.866 209.043 252.06 164.919 234.732C120.795 217.404 83.9625 193.852 60.0778 169.803C48.1349 157.777 39.4464 145.645 34.6924 134.122C29.9398 122.602 29.1299 111.721 32.8874 102.153C36.645 92.5848 44.6426 85.163 55.9643 79.9557C67.2891 74.747 81.9117 71.7692 98.846 71.0844C132.713 69.715 175.729 77.5212 219.853 94.8493C263.977 112.177 300.81 135.729 324.694 159.779C336.637 171.804 345.326 183.936 350.08 195.46C354.832 206.979 355.642 217.86 351.885 227.428Z" fill="#FE6108" stroke="black"/>
<path d="M351.885 195.865C348.127 205.433 340.129 212.855 328.808 218.062C317.483 223.271 302.86 226.249 285.926 226.933C252.059 228.303 209.043 220.497 164.919 203.169C120.795 185.84 83.9625 162.289 60.0778 138.239C48.1349 126.214 39.4464 114.081 34.6924 102.558C29.9398 91.0383 29.1299 80.1576 32.8874 70.5895C36.645 61.0214 44.6426 53.5995 55.9643 48.3923C67.2891 43.1836 81.9117 40.2057 98.846 39.5209C132.713 38.1515 175.729 45.9577 219.853 63.2858C263.977 80.614 300.81 104.166 324.694 128.215C336.637 140.241 345.326 152.373 350.08 163.896C354.832 175.416 355.642 186.297 351.885 195.865Z" fill="#EDFC0C" stroke="black"/>
</svg>
